# This file uses centimeters as units for non-parametric coordinates.

mtllib fieldgoal.mtl
g default
v -0.200000 0.500000 -16.915998
v 0.200000 0.500000 -16.915998
v -0.200000 1.985030 -16.915998
v 0.200000 1.985030 -16.915998
v -0.200000 1.985030 -17.316000
v 0.200000 1.985030 -17.316000
v -0.200000 0.500000 -17.316000
v 0.200000 0.500000 -17.316000
v -0.200000 2.385030 -16.915998
v 0.200000 2.385030 -16.915998
v 0.200000 2.385030 -17.316000
v -0.200000 2.385030 -17.316000
v 1.009863 1.985030 -16.915998
v 1.009863 1.985030 -17.316000
v 1.009863 2.385030 -17.316000
v 1.009863 2.385030 -16.915998
v -1.009863 1.985030 -16.915998
v -1.009863 1.985030 -17.316000
v -1.009863 2.385030 -16.915998
v -1.009863 2.385030 -17.316000
v 1.279160 1.985030 -16.915998
v 1.279160 1.985030 -17.316000
v 1.279160 2.385030 -17.316000
v 1.279160 2.385030 -16.915998
v -1.279160 1.985030 -16.915998
v -1.279160 1.985030 -17.316000
v -1.279160 2.385030 -16.915998
v -1.279160 2.385030 -17.316000
v 1.009863 4.685599 -16.915998
v 1.009863 4.685599 -17.316000
v 1.279160 4.685599 -16.915998
v 1.279160 4.685599 -17.316000
v -1.009863 4.685599 -16.915998
v -1.009863 4.685599 -17.316000
v -1.279160 4.685599 -17.316000
v -1.279160 4.685599 -16.915998
v -0.200000 0.500000 17.316412
v 0.200000 0.500000 17.316412
v -0.200000 1.985030 17.316412
v 0.200000 1.985030 17.316412
v -0.200000 1.985030 16.916410
v 0.200000 1.985030 16.916410
v -0.200000 0.500000 16.916410
v 0.200000 0.500000 16.916410
v -0.200000 2.385030 17.316412
v 0.200000 2.385030 17.316412
v 0.200000 2.385030 16.916410
v -0.200000 2.385030 16.916410
v 1.009863 1.985030 17.316412
v 1.009863 1.985030 16.916410
v 1.009863 2.385030 16.916410
v 1.009863 2.385030 17.316412
v -1.009863 1.985030 17.316412
v -1.009863 1.985030 16.916410
v -1.009863 2.385030 17.316412
v -1.009863 2.385030 16.916410
v 1.279160 1.985030 17.316412
v 1.279160 1.985030 16.916410
v 1.279160 2.385030 16.916410
v 1.279160 2.385030 17.316412
v -1.279160 1.985030 17.316412
v -1.279160 1.985030 16.916410
v -1.279160 2.385030 17.316412
v -1.279160 2.385030 16.916410
v 1.009863 4.685599 17.316412
v 1.009863 4.685599 16.916410
v 1.279160 4.685599 17.316412
v 1.279160 4.685599 16.916410
v -1.009863 4.685599 17.316412
v -1.009863 4.685599 16.916410
v -1.279160 4.685599 16.916410
v -1.279160 4.685599 17.316412
vt 0.375000 0.000000
vt 0.625000 0.000000
vt 0.375000 0.250000
vt 0.625000 0.250000
vt 0.375000 0.500000
vt 0.625000 0.500000
vt 0.375000 0.750000
vt 0.625000 0.750000
vt 0.375000 1.000000
vt 0.625000 1.000000
vt 0.875000 0.000000
vt 0.875000 0.250000
vt 0.125000 0.000000
vt 0.125000 0.250000
vt 0.375000 0.250000
vt 0.625000 0.250000
vt 0.625000 0.500000
vt 0.375000 0.500000
vt 0.625000 0.250000
vt 0.625000 0.500000
vt 0.625000 0.500000
vt 0.625000 0.250000
vt 0.375000 0.500000
vt 0.375000 0.250000
vt 0.375000 0.250000
vt 0.375000 0.500000
vt 0.625000 0.250000
vt 0.625000 0.500000
vt 0.625000 0.500000
vt 0.625000 0.250000
vt 0.375000 0.500000
vt 0.375000 0.250000
vt 0.375000 0.250000
vt 0.375000 0.500000
vt 0.625000 0.500000
vt 0.625000 0.250000
vt 0.625000 0.250000
vt 0.625000 0.500000
vt 0.375000 0.250000
vt 0.375000 0.500000
vt 0.375000 0.500000
vt 0.375000 0.250000
vt 0.375000 0.000000
vt 0.625000 0.000000
vt 0.625000 0.250000
vt 0.375000 0.250000
vt 0.375000 0.250000
vt 0.625000 0.250000
vt 0.625000 0.500000
vt 0.375000 0.500000
vt 0.375000 0.500000
vt 0.625000 0.500000
vt 0.625000 0.750000
vt 0.375000 0.750000
vt 0.625000 1.000000
vt 0.375000 1.000000
vt 0.875000 0.000000
vt 0.875000 0.250000
vt 0.125000 0.000000
vt 0.125000 0.250000
vt 0.625000 0.250000
vt 0.625000 0.500000
vt 0.625000 0.500000
vt 0.625000 0.250000
vt 0.375000 0.500000
vt 0.375000 0.250000
vt 0.375000 0.250000
vt 0.375000 0.500000
vt 0.625000 0.500000
vt 0.625000 0.250000
vt 0.625000 0.500000
vt 0.625000 0.250000
vt 0.375000 0.250000
vt 0.375000 0.500000
vt 0.375000 0.250000
vt 0.375000 0.500000
vt 0.625000 0.500000
vt 0.625000 0.250000
vt 0.625000 0.250000
vt 0.625000 0.500000
vt 0.375000 0.250000
vt 0.375000 0.500000
vt 0.375000 0.500000
vt 0.375000 0.250000
vn 0.000000 0.000000 1.000000
vn 0.000000 0.000000 1.000000
vn 0.000000 0.000000 1.000000
vn 0.000000 0.000000 1.000000
vn 0.000000 1.000000 0.000000
vn 0.000000 1.000000 0.000000
vn 0.000000 1.000000 0.000000
vn 0.000000 1.000000 0.000000
vn 0.000000 0.000000 -1.000000
vn 0.000000 0.000000 -1.000000
vn 0.000000 0.000000 -1.000000
vn 0.000000 0.000000 -1.000000
vn 0.000000 -1.000000 0.000000
vn 0.000000 -1.000000 0.000000
vn 0.000000 -1.000000 0.000000
vn 0.000000 -1.000000 0.000000
vn 1.000000 0.000000 0.000000
vn 1.000000 0.000000 0.000000
vn 1.000000 0.000000 0.000000
vn 1.000000 0.000000 0.000000
vn -1.000000 0.000000 0.000000
vn -1.000000 0.000000 0.000000
vn -1.000000 0.000000 0.000000
vn -1.000000 0.000000 0.000000
vn 0.000000 0.000000 1.000000
vn 0.000000 0.000000 1.000000
vn 1.000000 0.000000 0.000000
vn 1.000000 0.000000 0.000000
vn 1.000000 0.000000 0.000000
vn 1.000000 0.000000 0.000000
vn 0.000000 0.000000 -1.000000
vn 0.000000 0.000000 -1.000000
vn -1.000000 0.000000 0.000000
vn -1.000000 0.000000 0.000000
vn -1.000000 0.000000 0.000000
vn -1.000000 0.000000 0.000000
vn 0.000000 -1.000000 0.000000
vn 0.000000 -1.000000 0.000000
vn 0.000000 -1.000000 0.000000
vn 0.000000 -1.000000 0.000000
vn 0.000000 0.000000 -1.000000
vn 0.000000 0.000000 -1.000000
vn 0.000000 1.000000 0.000000
vn 0.000000 1.000000 0.000000
vn 0.000000 0.000000 1.000000
vn 0.000000 0.000000 1.000000
vn 0.000000 -1.000000 0.000000
vn 0.000000 -1.000000 0.000000
vn 0.000000 -1.000000 0.000000
vn 0.000000 -1.000000 0.000000
vn 0.000000 0.000000 1.000000
vn 0.000000 0.000000 1.000000
vn 0.000000 1.000000 0.000000
vn 0.000000 1.000000 0.000000
vn 0.000000 0.000000 -1.000000
vn 0.000000 0.000000 -1.000000
vn 0.000000 -1.000000 0.000000
vn 0.000000 -1.000000 0.000000
vn 0.000000 0.000000 -1.000000
vn 0.000000 0.000000 -1.000000
vn 0.000000 1.000000 0.000000
vn 0.000000 1.000000 0.000000
vn 0.000000 1.000000 0.000000
vn 0.000000 1.000000 0.000000
vn 0.000000 0.000000 1.000000
vn 0.000000 0.000000 1.000000
vn 0.000000 -1.000000 0.000000
vn 0.000000 -1.000000 0.000000
vn 0.000000 0.000000 1.000000
vn 0.000000 0.000000 1.000000
vn 0.000000 1.000000 0.000000
vn 0.000000 1.000000 0.000000
vn 0.000000 1.000000 0.000000
vn 0.000000 1.000000 0.000000
vn 0.000000 0.000000 -1.000000
vn 0.000000 0.000000 -1.000000
vn -1.000000 0.000000 0.000000
vn -1.000000 0.000000 0.000000
vn -1.000000 0.000000 0.000000
vn -1.000000 0.000000 0.000000
vn 0.000000 0.000000 1.000000
vn 0.000000 0.000000 1.000000
vn 1.000000 0.000000 0.000000
vn 1.000000 0.000000 0.000000
vn 0.000000 0.000000 -1.000000
vn 0.000000 0.000000 -1.000000
vn 1.000000 0.000000 0.000000
vn 1.000000 0.000000 0.000000
vn 1.000000 0.000000 0.000000
vn 1.000000 0.000000 0.000000
vn 0.000000 0.000000 -1.000000
vn 0.000000 0.000000 -1.000000
vn -1.000000 0.000000 0.000000
vn -1.000000 0.000000 0.000000
vn 0.000000 0.000000 1.000000
vn 0.000000 0.000000 1.000000
vn 0.000000 0.000000 1.000000
vn 0.000000 0.000000 1.000000
vn 0.000000 0.000000 1.000000
vn 0.000000 0.000000 1.000000
vn 0.000000 1.000000 0.000000
vn 0.000000 1.000000 0.000000
vn 0.000000 1.000000 0.000000
vn 0.000000 1.000000 0.000000
vn 0.000000 0.000000 -1.000000
vn 0.000000 0.000000 -1.000000
vn 0.000000 0.000000 -1.000000
vn 0.000000 0.000000 -1.000000
vn 0.000000 -1.000000 0.000000
vn 0.000000 -1.000000 0.000000
vn 0.000000 -1.000000 0.000000
vn 0.000000 -1.000000 0.000000
vn 1.000000 0.000000 0.000000
vn 1.000000 0.000000 0.000000
vn 1.000000 0.000000 0.000000
vn 1.000000 0.000000 0.000000
vn -1.000000 0.000000 0.000000
vn -1.000000 0.000000 0.000000
vn -1.000000 0.000000 0.000000
vn -1.000000 0.000000 0.000000
vn 0.000000 0.000000 1.000000
vn 0.000000 0.000000 1.000000
vn 1.000000 0.000000 0.000000
vn 1.000000 0.000000 0.000000
vn 1.000000 0.000000 0.000000
vn 1.000000 0.000000 0.000000
vn 0.000000 0.000000 -1.000000
vn 0.000000 0.000000 -1.000000
vn -1.000000 0.000000 0.000000
vn -1.000000 0.000000 0.000000
vn -1.000000 0.000000 0.000000
vn -1.000000 0.000000 0.000000
vn 0.000000 -1.000000 0.000000
vn 0.000000 -1.000000 0.000000
vn 0.000000 -1.000000 0.000000
vn 0.000000 -1.000000 0.000000
vn 0.000000 0.000000 -1.000000
vn 0.000000 0.000000 -1.000000
vn 0.000000 1.000000 0.000000
vn 0.000000 1.000000 0.000000
vn 0.000000 0.000000 1.000000
vn 0.000000 0.000000 1.000000
vn 0.000000 -1.000000 0.000000
vn 0.000000 -1.000000 0.000000
vn 0.000000 -1.000000 0.000000
vn 0.000000 -1.000000 0.000000
vn 0.000000 0.000000 1.000000
vn 0.000000 0.000000 1.000000
vn 0.000000 1.000000 0.000000
vn 0.000000 1.000000 0.000000
vn 0.000000 0.000000 -1.000000
vn 0.000000 0.000000 -1.000000
vn 0.000000 -1.000000 0.000000
vn 0.000000 -1.000000 0.000000
vn 0.000000 0.000000 -1.000000
vn 0.000000 0.000000 -1.000000
vn 0.000000 1.000000 0.000000
vn 0.000000 1.000000 0.000000
vn 0.000000 1.000000 0.000000
vn 0.000000 1.000000 0.000000
vn 0.000000 0.000000 1.000000
vn 0.000000 0.000000 1.000000
vn 0.000000 -1.000000 0.000000
vn 0.000000 -1.000000 0.000000
vn 0.000000 0.000000 1.000000
vn 0.000000 0.000000 1.000000
vn 0.000000 1.000000 0.000000
vn 0.000000 1.000000 0.000000
vn 0.000000 1.000000 0.000000
vn 0.000000 1.000000 0.000000
vn 0.000000 0.000000 -1.000000
vn 0.000000 0.000000 -1.000000
vn -1.000000 0.000000 0.000000
vn -1.000000 0.000000 0.000000
vn -1.000000 0.000000 0.000000
vn -1.000000 0.000000 0.000000
vn 0.000000 0.000000 1.000000
vn 0.000000 0.000000 1.000000
vn 1.000000 0.000000 0.000000
vn 1.000000 0.000000 0.000000
vn 0.000000 0.000000 -1.000000
vn 0.000000 0.000000 -1.000000
vn 1.000000 0.000000 0.000000
vn 1.000000 0.000000 0.000000
vn 1.000000 0.000000 0.000000
vn 1.000000 0.000000 0.000000
vn 0.000000 0.000000 -1.000000
vn 0.000000 0.000000 -1.000000
vn -1.000000 0.000000 0.000000
vn -1.000000 0.000000 0.000000
vn 0.000000 0.000000 1.000000
vn 0.000000 0.000000 1.000000
s 1
g pCube136
usemtl initialShadingGroup
f 1/1/1 2/2/2 4/4/3 3/3/4
s 2
f 9/15/5 10/16/6 11/17/7 12/18/8
s 3
f 5/5/9 6/6/10 8/8/11 7/7/12
s off
f 7/7/13 8/8/14 2/10/15 1/9/16
f 2/2/17 8/11/18 6/12/19 4/4/20
f 7/13/21 1/1/22 3/3/23 5/14/24
s 1
f 3/3/4 4/4/3 10/16/25 9/15/26
s 4
f 21/27/27 22/28/28 23/29/29 24/30/30
s 3
f 6/6/10 5/5/9 12/18/31 11/17/32
s 5
f 26/31/33 25/32/34 27/33/35 28/34/36
s 6
f 4/4/37 6/6/38 14/20/39 13/19/40
s 3
f 6/6/10 11/17/32 15/21/41 14/20/42
s 2
f 11/17/7 10/16/6 16/22/43 15/21/44
s 1
f 10/16/25 4/4/3 13/19/45 16/22/46
s 7
f 5/5/47 3/3/48 17/24/49 18/23/50
s 1
f 3/3/4 9/15/26 19/25/51 17/24/52
s 2
f 9/15/5 12/18/8 20/26/53 19/25/54
s 3
f 12/18/31 5/5/9 18/23/55 20/26/56
s 6
f 13/19/40 14/20/39 22/28/57 21/27/58
s 3
f 14/20/42 15/21/41 23/29/59 22/28/60
s off
f 30/35/61 29/36/62 31/37/63 32/38/64
s 1
f 16/22/46 13/19/45 21/27/65 24/30/66
s 7
f 18/23/50 17/24/49 25/32/67 26/31/68
s 1
f 17/24/52 19/25/51 27/33/69 25/32/70
s off
f 33/39/71 34/40/72 35/41/73 36/42/74
s 3
f 20/26/56 18/23/55 26/31/75 28/34/76
s off
f 15/21/77 16/22/78 29/36/79 30/35/80
s 1
f 16/22/46 24/30/66 31/37/81 29/36/82
s 4
f 24/30/30 23/29/29 32/38/83 31/37/84
s 3
f 23/29/59 15/21/41 30/35/85 32/38/86
s off
f 19/25/87 20/26/88 34/40/89 33/39/90
s 3
f 20/26/56 28/34/76 35/41/91 34/40/92
s 5
f 28/34/36 27/33/35 36/42/93 35/41/94
s 1
f 27/33/69 19/25/51 33/39/95 36/42/96
s 8
f 37/43/97 38/44/98 40/45/99 39/46/100
s 9
f 45/47/101 46/48/102 47/49/103 48/50/104
s 10
f 41/51/105 42/52/106 44/53/107 43/54/108
s off
f 43/54/109 44/53/110 38/55/111 37/56/112
f 38/44/113 44/57/114 42/58/115 40/45/116
f 43/59/117 37/43/118 39/46/119 41/60/120
s 8
f 39/46/100 40/45/99 46/48/121 45/47/122
s 11
f 57/61/123 58/62/124 59/63/125 60/64/126
s 10
f 42/52/106 41/51/105 48/50/127 47/49/128
s 12
f 62/65/129 61/66/130 63/67/131 64/68/132
s 13
f 40/45/133 42/52/134 50/69/135 49/70/136
s 10
f 42/52/106 47/49/128 51/71/137 50/69/138
s 9
f 47/49/103 46/48/102 52/72/139 51/71/140
s 8
f 46/48/121 40/45/99 49/70/141 52/72/142
s 14
f 41/51/143 39/46/144 53/73/145 54/74/146
s 8
f 39/46/100 45/47/122 55/75/147 53/73/148
s 9
f 45/47/101 48/50/104 56/76/149 55/75/150
s 10
f 48/50/127 41/51/105 54/74/151 56/76/152
s 13
f 49/70/136 50/69/135 58/62/153 57/61/154
s 10
f 50/69/138 51/71/137 59/63/155 58/62/156
s off
f 66/77/157 65/78/158 67/79/159 68/80/160
s 8
f 52/72/142 49/70/141 57/61/161 60/64/162
s 14
f 54/74/146 53/73/145 61/66/163 62/65/164
s 8
f 53/73/148 55/75/147 63/67/165 61/66/166
s off
f 69/81/167 70/82/168 71/83/169 72/84/170
s 10
f 56/76/152 54/74/151 62/65/171 64/68/172
s off
f 51/71/173 52/72/174 65/78/175 66/77/176
s 8
f 52/72/142 60/64/162 67/79/177 65/78/178
s 11
f 60/64/126 59/63/125 68/80/179 67/79/180
s 10
f 59/63/155 51/71/137 66/77/181 68/80/182
s off
f 55/75/183 56/76/184 70/82/185 69/81/186
s 10
f 56/76/152 64/68/172 71/83/187 70/82/188
s 12
f 64/68/132 63/67/131 72/84/189 71/83/190
s 8
f 63/67/165 55/75/147 69/81/191 72/84/192
